<svg xmlns="http://www.w3.org/2000/svg" width="569" height="118" viewBox="0 0 569.22 118.00" role="img" aria-label="Apps I have open">
  <defs>
    <linearGradient id="bg" x1="0" y1="0" x2="1" y2="1">
      <stop offset="0" stop-color="#122034"/><stop offset="1" stop-color="#0a1220"/>
    </linearGradient>
    <linearGradient id="edge" x1="0" y1="0" x2="0" y2="1">
      <stop offset="0" stop-color="#ffffff" stop-opacity=".26"/>
      <stop offset="1" stop-color="#ffffff" stop-opacity=".05"/>
    </linearGradient>
    <radialGradient id="w" cx=".5" cy="0" r=".9">
      <stop offset="0" stop-color="#63e0c7" stop-opacity=".16"/>
      <stop offset="1" stop-color="#63e0c7" stop-opacity="0"/>
    </radialGradient>
    <linearGradient id="ink" gradientUnits="userSpaceOnUse" x1="0" y1="0" x2="24" y2="24">
      <stop offset="0" stop-color="#7bead2"/><stop offset="1" stop-color="#7fb2ff"/>
    </linearGradient>
  </defs>
  <rect x=".7" y=".7" width="567.82" height="116.60" rx="16" fill="url(#bg)"/>
  <rect x=".7" y=".7" width="567.82" height="116.60" rx="16" fill="url(#w)"/>
  <rect x=".7" y=".7" width="567.82" height="116.60" rx="16" fill="none" stroke="url(#edge)" stroke-width="1.3"/>
  <rect x="20.00" y="20.00" width="127.68" height="34.0" rx="17.0" fill="#ffffff" fill-opacity=".045"/>
  <rect x="20.00" y="20.00" width="127.68" height="34.0" rx="17.0" fill="none" stroke="#9999ff" stroke-opacity=".30" stroke-width="1.1"/>
  <circle cx="36.00" cy="37.00" r="6.4" fill="#9999ff" opacity=".18"/>
  <circle cx="36.00" cy="37.00" r="4.0" fill="#9999ff"/>
  <g transform="translate(48.00,41.76)" fill="#dfe9f7"><path transform="translate(0.00,0) scale(0.01340,-0.01340)" d="M315.00 282.00H189.00V0.00H75.00V695.00H315.00Q395.00 695.00 450.50 667.50Q506.00 640.00 533.50 593.00Q561.00 546.00 561.00 488.00Q561.00 435.00 536.00 388.00Q511.00 341.00 456.00 311.50Q401.00 282.00 315.00 282.00ZM444.00 488.00Q444.00 602.00 315.00 602.00H189.00V375.00H315.00Q380.00 375.00 412.00 404.50Q444.00 434.00 444.00 488.00Z"/><path transform="translate(7.97,0) scale(0.01340,-0.01340)" d="M354.00 560.00V442.00H325.00Q258.00 442.00 223.50 408.00Q189.00 374.00 189.00 290.00V0.00H75.00V551.00H189.00V471.00Q214.00 513.00 255.50 536.50Q297.00 560.00 354.00 560.00Z"/><path transform="translate(13.12,0) scale(0.01340,-0.01340)" d="M576.00 233.00H155.00Q160.00 167.00 204.00 127.00Q248.00 87.00 312.00 87.00Q404.00 87.00 442.00 164.00H565.00Q540.00 88.00 474.50 39.50Q409.00 -9.00 312.00 -9.00Q233.00 -9.00 170.50 26.50Q108.00 62.00 72.50 126.50Q37.00 191.00 37.00 276.00Q37.00 361.00 71.50 425.50Q106.00 490.00 168.50 525.00Q231.00 560.00 312.00 560.00Q390.00 560.00 451.00 526.00Q512.00 492.00 546.00 430.50Q580.00 369.00 580.00 289.00Q580.00 258.00 576.00 233.00ZM461.00 325.00Q460.00 388.00 416.00 426.00Q372.00 464.00 307.00 464.00Q248.00 464.00 206.00 426.50Q164.00 389.00 156.00 325.00Z"/><path transform="translate(21.39,0) scale(0.01340,-0.01340)" d="M969.00 325.00V0.00H856.00V308.00Q856.00 382.00 819.00 421.50Q782.00 461.00 718.00 461.00Q654.00 461.00 616.50 421.50Q579.00 382.00 579.00 308.00V0.00H466.00V308.00Q466.00 382.00 429.00 421.50Q392.00 461.00 328.00 461.00Q264.00 461.00 226.50 421.50Q189.00 382.00 189.00 308.00V0.00H75.00V551.00H189.00V488.00Q217.00 522.00 260.00 541.00Q303.00 560.00 352.00 560.00Q418.00 560.00 470.00 532.00Q522.00 504.00 550.00 451.00Q575.00 501.00 628.00 530.50Q681.00 560.00 742.00 560.00Q807.00 560.00 858.50 533.00Q910.00 506.00 939.50 453.00Q969.00 400.00 969.00 325.00Z"/><path transform="translate(35.31,0) scale(0.01340,-0.01340)" d="M60.00 697.00Q60.00 728.00 81.00 749.00Q102.00 770.00 133.00 770.00Q163.00 770.00 184.00 749.00Q205.00 728.00 205.00 697.00Q205.00 666.00 184.00 645.00Q163.00 624.00 133.00 624.00Q102.00 624.00 81.00 645.00Q60.00 666.00 60.00 697.00ZM189.00 551.00V0.00H75.00V551.00Z"/><path transform="translate(38.85,0) scale(0.01340,-0.01340)" d="M576.00 233.00H155.00Q160.00 167.00 204.00 127.00Q248.00 87.00 312.00 87.00Q404.00 87.00 442.00 164.00H565.00Q540.00 88.00 474.50 39.50Q409.00 -9.00 312.00 -9.00Q233.00 -9.00 170.50 26.50Q108.00 62.00 72.50 126.50Q37.00 191.00 37.00 276.00Q37.00 361.00 71.50 425.50Q106.00 490.00 168.50 525.00Q231.00 560.00 312.00 560.00Q390.00 560.00 451.00 526.00Q512.00 492.00 546.00 430.50Q580.00 369.00 580.00 289.00Q580.00 258.00 576.00 233.00ZM461.00 325.00Q460.00 388.00 416.00 426.00Q372.00 464.00 307.00 464.00Q248.00 464.00 206.00 426.50Q164.00 389.00 156.00 325.00Z"/><path transform="translate(47.11,0) scale(0.01340,-0.01340)" d="M354.00 560.00V442.00H325.00Q258.00 442.00 223.50 408.00Q189.00 374.00 189.00 290.00V0.00H75.00V551.00H189.00V471.00Q214.00 513.00 255.50 536.50Q297.00 560.00 354.00 560.00Z"/><path transform="translate(52.26,0) scale(0.01340,-0.01340)" d="M576.00 233.00H155.00Q160.00 167.00 204.00 127.00Q248.00 87.00 312.00 87.00Q404.00 87.00 442.00 164.00H565.00Q540.00 88.00 474.50 39.50Q409.00 -9.00 312.00 -9.00Q233.00 -9.00 170.50 26.50Q108.00 62.00 72.50 126.50Q37.00 191.00 37.00 276.00Q37.00 361.00 71.50 425.50Q106.00 490.00 168.50 525.00Q231.00 560.00 312.00 560.00Q390.00 560.00 451.00 526.00Q512.00 492.00 546.00 430.50Q580.00 369.00 580.00 289.00Q580.00 258.00 576.00 233.00ZM461.00 325.00Q460.00 388.00 416.00 426.00Q372.00 464.00 307.00 464.00Q248.00 464.00 206.00 426.50Q164.00 389.00 156.00 325.00Z"/><path transform="translate(64.01,0) scale(0.01340,-0.01340)" d="M315.00 282.00H189.00V0.00H75.00V695.00H315.00Q395.00 695.00 450.50 667.50Q506.00 640.00 533.50 593.00Q561.00 546.00 561.00 488.00Q561.00 435.00 536.00 388.00Q511.00 341.00 456.00 311.50Q401.00 282.00 315.00 282.00ZM444.00 488.00Q444.00 602.00 315.00 602.00H189.00V375.00H315.00Q380.00 375.00 412.00 404.50Q444.00 434.00 444.00 488.00Z"/><path transform="translate(71.98,0) scale(0.01340,-0.01340)" d="M354.00 560.00V442.00H325.00Q258.00 442.00 223.50 408.00Q189.00 374.00 189.00 290.00V0.00H75.00V551.00H189.00V471.00Q214.00 513.00 255.50 536.50Q297.00 560.00 354.00 560.00Z"/><path transform="translate(77.13,0) scale(0.01340,-0.01340)" d="M38.00 276.00Q38.00 360.00 75.00 425.00Q112.00 490.00 176.00 525.00Q240.00 560.00 319.00 560.00Q398.00 560.00 462.00 525.00Q526.00 490.00 563.00 425.00Q600.00 360.00 600.00 276.00Q600.00 192.00 562.00 127.00Q524.00 62.00 458.50 26.50Q393.00 -9.00 314.00 -9.00Q236.00 -9.00 173.00 26.50Q110.00 62.00 74.00 126.50Q38.00 191.00 38.00 276.00ZM483.00 276.00Q483.00 336.00 460.00 377.50Q437.00 419.00 399.00 440.00Q361.00 461.00 317.00 461.00Q273.00 461.00 235.50 440.00Q198.00 419.00 176.00 377.50Q154.00 336.00 154.00 276.00Q154.00 187.00 199.50 138.50Q245.00 90.00 314.00 90.00Q358.00 90.00 396.50 111.00Q435.00 132.00 459.00 174.00Q483.00 216.00 483.00 276.00Z"/></g>
  <rect x="157.68" y="20.00" width="114.24" height="34.0" rx="17.0" fill="#ffffff" fill-opacity=".045"/>
  <rect x="157.68" y="20.00" width="114.24" height="34.0" rx="17.0" fill="none" stroke="#31a8ff" stroke-opacity=".30" stroke-width="1.1"/>
  <circle cx="173.68" cy="37.00" r="6.4" fill="#31a8ff" opacity=".18"/>
  <circle cx="173.68" cy="37.00" r="4.0" fill="#31a8ff"/>
  <g transform="translate(185.68,41.76)" fill="#dfe9f7"><path transform="translate(0.00,0) scale(0.01340,-0.01340)" d="M315.00 282.00H189.00V0.00H75.00V695.00H315.00Q395.00 695.00 450.50 667.50Q506.00 640.00 533.50 593.00Q561.00 546.00 561.00 488.00Q561.00 435.00 536.00 388.00Q511.00 341.00 456.00 311.50Q401.00 282.00 315.00 282.00ZM444.00 488.00Q444.00 602.00 315.00 602.00H189.00V375.00H315.00Q380.00 375.00 412.00 404.50Q444.00 434.00 444.00 488.00Z"/><path transform="translate(7.97,0) scale(0.01340,-0.01340)" d="M579.00 325.00V0.00H466.00V308.00Q466.00 382.00 429.00 421.50Q392.00 461.00 328.00 461.00Q264.00 461.00 226.50 421.50Q189.00 382.00 189.00 308.00V0.00H75.00V740.00H189.00V487.00Q218.00 522.00 262.50 541.00Q307.00 560.00 360.00 560.00Q423.00 560.00 472.50 533.00Q522.00 506.00 550.50 453.00Q579.00 400.00 579.00 325.00Z"/><path transform="translate(16.67,0) scale(0.01340,-0.01340)" d="M38.00 276.00Q38.00 360.00 75.00 425.00Q112.00 490.00 176.00 525.00Q240.00 560.00 319.00 560.00Q398.00 560.00 462.00 525.00Q526.00 490.00 563.00 425.00Q600.00 360.00 600.00 276.00Q600.00 192.00 562.00 127.00Q524.00 62.00 458.50 26.50Q393.00 -9.00 314.00 -9.00Q236.00 -9.00 173.00 26.50Q110.00 62.00 74.00 126.50Q38.00 191.00 38.00 276.00ZM483.00 276.00Q483.00 336.00 460.00 377.50Q437.00 419.00 399.00 440.00Q361.00 461.00 317.00 461.00Q273.00 461.00 235.50 440.00Q198.00 419.00 176.00 377.50Q154.00 336.00 154.00 276.00Q154.00 187.00 199.50 138.50Q245.00 90.00 314.00 90.00Q358.00 90.00 396.50 111.00Q435.00 132.00 459.00 174.00Q483.00 216.00 483.00 276.00Z"/><path transform="translate(25.22,0) scale(0.01340,-0.01340)" d="M208.00 458.00V153.00Q208.00 122.00 222.50 108.50Q237.00 95.00 272.00 95.00H342.00V0.00H252.00Q175.00 0.00 134.00 36.00Q93.00 72.00 93.00 153.00V458.00H28.00V551.00H93.00V688.00H208.00V551.00H342.00V458.00Z"/><path transform="translate(30.20,0) scale(0.01340,-0.01340)" d="M38.00 276.00Q38.00 360.00 75.00 425.00Q112.00 490.00 176.00 525.00Q240.00 560.00 319.00 560.00Q398.00 560.00 462.00 525.00Q526.00 490.00 563.00 425.00Q600.00 360.00 600.00 276.00Q600.00 192.00 562.00 127.00Q524.00 62.00 458.50 26.50Q393.00 -9.00 314.00 -9.00Q236.00 -9.00 173.00 26.50Q110.00 62.00 74.00 126.50Q38.00 191.00 38.00 276.00ZM483.00 276.00Q483.00 336.00 460.00 377.50Q437.00 419.00 399.00 440.00Q361.00 461.00 317.00 461.00Q273.00 461.00 235.50 440.00Q198.00 419.00 176.00 377.50Q154.00 336.00 154.00 276.00Q154.00 187.00 199.50 138.50Q245.00 90.00 314.00 90.00Q358.00 90.00 396.50 111.00Q435.00 132.00 459.00 174.00Q483.00 216.00 483.00 276.00Z"/><path transform="translate(38.75,0) scale(0.01340,-0.01340)" d="M45.00 169.00H163.00Q166.00 134.00 196.50 110.50Q227.00 87.00 273.00 87.00Q321.00 87.00 347.50 105.50Q374.00 124.00 374.00 153.00Q374.00 184.00 344.50 199.00Q315.00 214.00 251.00 232.00Q189.00 249.00 150.00 265.00Q111.00 281.00 82.50 314.00Q54.00 347.00 54.00 401.00Q54.00 445.00 80.00 481.50Q106.00 518.00 154.50 539.00Q203.00 560.00 266.00 560.00Q360.00 560.00 417.50 512.50Q475.00 465.00 479.00 383.00H365.00Q362.00 420.00 335.00 442.00Q308.00 464.00 262.00 464.00Q217.00 464.00 193.00 447.00Q169.00 430.00 169.00 402.00Q169.00 380.00 185.00 365.00Q201.00 350.00 224.00 341.50Q247.00 333.00 292.00 320.00Q352.00 304.00 390.50 287.50Q429.00 271.00 457.00 239.00Q485.00 207.00 486.00 154.00Q486.00 107.00 460.00 70.00Q434.00 33.00 386.50 12.00Q339.00 -9.00 275.00 -9.00Q210.00 -9.00 158.50 14.50Q107.00 38.00 77.00 78.50Q47.00 119.00 45.00 169.00Z"/><path transform="translate(45.91,0) scale(0.01340,-0.01340)" d="M579.00 325.00V0.00H466.00V308.00Q466.00 382.00 429.00 421.50Q392.00 461.00 328.00 461.00Q264.00 461.00 226.50 421.50Q189.00 382.00 189.00 308.00V0.00H75.00V740.00H189.00V487.00Q218.00 522.00 262.50 541.00Q307.00 560.00 360.00 560.00Q423.00 560.00 472.50 533.00Q522.00 506.00 550.50 453.00Q579.00 400.00 579.00 325.00Z"/><path transform="translate(54.61,0) scale(0.01340,-0.01340)" d="M38.00 276.00Q38.00 360.00 75.00 425.00Q112.00 490.00 176.00 525.00Q240.00 560.00 319.00 560.00Q398.00 560.00 462.00 525.00Q526.00 490.00 563.00 425.00Q600.00 360.00 600.00 276.00Q600.00 192.00 562.00 127.00Q524.00 62.00 458.50 26.50Q393.00 -9.00 314.00 -9.00Q236.00 -9.00 173.00 26.50Q110.00 62.00 74.00 126.50Q38.00 191.00 38.00 276.00ZM483.00 276.00Q483.00 336.00 460.00 377.50Q437.00 419.00 399.00 440.00Q361.00 461.00 317.00 461.00Q273.00 461.00 235.50 440.00Q198.00 419.00 176.00 377.50Q154.00 336.00 154.00 276.00Q154.00 187.00 199.50 138.50Q245.00 90.00 314.00 90.00Q358.00 90.00 396.50 111.00Q435.00 132.00 459.00 174.00Q483.00 216.00 483.00 276.00Z"/><path transform="translate(63.15,0) scale(0.01340,-0.01340)" d="M381.00 560.00Q453.00 560.00 512.50 524.50Q572.00 489.00 606.00 425.00Q640.00 361.00 640.00 278.00Q640.00 195.00 606.00 129.50Q572.00 64.00 512.50 27.50Q453.00 -9.00 381.00 -9.00Q318.00 -9.00 269.00 16.50Q220.00 42.00 189.00 80.00V-262.00H75.00V551.00H189.00V470.00Q218.00 508.00 268.00 534.00Q318.00 560.00 381.00 560.00ZM356.00 461.00Q313.00 461.00 274.50 439.00Q236.00 417.00 212.50 375.00Q189.00 333.00 189.00 276.00Q189.00 219.00 212.50 176.50Q236.00 134.00 274.50 112.00Q313.00 90.00 356.00 90.00Q400.00 90.00 438.50 112.50Q477.00 135.00 500.50 178.00Q524.00 221.00 524.00 278.00Q524.00 335.00 500.50 376.50Q477.00 418.00 438.50 439.50Q400.00 461.00 356.00 461.00Z"/></g>
  <rect x="281.92" y="20.00" width="75.69" height="34.0" rx="17.0" fill="#ffffff" fill-opacity=".045"/>
  <rect x="281.92" y="20.00" width="75.69" height="34.0" rx="17.0" fill="none" stroke="#5c5543" stroke-opacity=".30" stroke-width="1.1"/>
  <circle cx="297.92" cy="37.00" r="6.4" fill="#5c5543" opacity=".18"/>
  <circle cx="297.92" cy="37.00" r="4.0" fill="#5c5543"/>
  <g transform="translate(309.92,41.76)" fill="#dfe9f7"><path transform="translate(0.00,0) scale(0.01340,-0.01340)" d="M578.00 495.00Q551.00 547.00 503.00 573.50Q455.00 600.00 392.00 600.00Q323.00 600.00 269.00 569.00Q215.00 538.00 184.50 481.00Q154.00 424.00 154.00 349.00Q154.00 274.00 184.50 216.50Q215.00 159.00 269.00 128.00Q323.00 97.00 392.00 97.00Q485.00 97.00 543.00 149.00Q601.00 201.00 614.00 290.00H353.00V381.00H736.00V292.00Q725.00 211.00 678.50 143.00Q632.00 75.00 557.50 34.50Q483.00 -6.00 392.00 -6.00Q294.00 -6.00 213.00 39.50Q132.00 85.00 84.50 166.00Q37.00 247.00 37.00 349.00Q37.00 451.00 84.50 532.00Q132.00 613.00 213.50 658.50Q295.00 704.00 392.00 704.00Q503.00 704.00 589.50 649.50Q676.00 595.00 715.00 495.00Z"/><path transform="translate(10.36,0) scale(0.01340,-0.01340)" d="M189.00 695.00V0.00H75.00V695.00Z"/><path transform="translate(13.90,0) scale(0.01340,-0.01340)" d="M807.00 695.00V0.00H693.00V476.00L481.00 0.00H402.00L189.00 476.00V0.00H75.00V695.00H198.00L442.00 150.00L685.00 695.00Z"/><path transform="translate(25.71,0) scale(0.01340,-0.01340)" d="M315.00 282.00H189.00V0.00H75.00V695.00H315.00Q395.00 695.00 450.50 667.50Q506.00 640.00 533.50 593.00Q561.00 546.00 561.00 488.00Q561.00 435.00 536.00 388.00Q511.00 341.00 456.00 311.50Q401.00 282.00 315.00 282.00ZM444.00 488.00Q444.00 602.00 315.00 602.00H189.00V375.00H315.00Q380.00 375.00 412.00 404.50Q444.00 434.00 444.00 488.00Z"/></g>
  <rect x="367.61" y="20.00" width="93.01" height="34.0" rx="17.0" fill="#ffffff" fill-opacity=".045"/>
  <rect x="367.61" y="20.00" width="93.01" height="34.0" rx="17.0" fill="none" stroke="#5865f2" stroke-opacity=".30" stroke-width="1.1"/>
  <circle cx="383.61" cy="37.00" r="6.4" fill="#5865f2" opacity=".18"/>
  <circle cx="383.61" cy="37.00" r="4.0" fill="#5865f2"/>
  <g transform="translate(395.61,41.76)" fill="#dfe9f7"><path transform="translate(0.00,0) scale(0.01340,-0.01340)" d="M671.00 345.00Q671.00 239.00 625.50 161.00Q580.00 83.00 496.50 41.50Q413.00 0.00 302.00 0.00H75.00V695.00H302.00Q413.00 695.00 496.50 652.50Q580.00 610.00 625.50 530.50Q671.00 451.00 671.00 345.00ZM554.00 345.00Q554.00 466.00 489.00 534.00Q424.00 602.00 302.00 602.00H189.00V93.00H302.00Q424.00 93.00 489.00 159.00Q554.00 225.00 554.00 345.00Z"/><path transform="translate(9.50,0) scale(0.01340,-0.01340)" d="M60.00 697.00Q60.00 728.00 81.00 749.00Q102.00 770.00 133.00 770.00Q163.00 770.00 184.00 749.00Q205.00 728.00 205.00 697.00Q205.00 666.00 184.00 645.00Q163.00 624.00 133.00 624.00Q102.00 624.00 81.00 645.00Q60.00 666.00 60.00 697.00ZM189.00 551.00V0.00H75.00V551.00Z"/><path transform="translate(13.04,0) scale(0.01340,-0.01340)" d="M45.00 169.00H163.00Q166.00 134.00 196.50 110.50Q227.00 87.00 273.00 87.00Q321.00 87.00 347.50 105.50Q374.00 124.00 374.00 153.00Q374.00 184.00 344.50 199.00Q315.00 214.00 251.00 232.00Q189.00 249.00 150.00 265.00Q111.00 281.00 82.50 314.00Q54.00 347.00 54.00 401.00Q54.00 445.00 80.00 481.50Q106.00 518.00 154.50 539.00Q203.00 560.00 266.00 560.00Q360.00 560.00 417.50 512.50Q475.00 465.00 479.00 383.00H365.00Q362.00 420.00 335.00 442.00Q308.00 464.00 262.00 464.00Q217.00 464.00 193.00 447.00Q169.00 430.00 169.00 402.00Q169.00 380.00 185.00 365.00Q201.00 350.00 224.00 341.50Q247.00 333.00 292.00 320.00Q352.00 304.00 390.50 287.50Q429.00 271.00 457.00 239.00Q485.00 207.00 486.00 154.00Q486.00 107.00 460.00 70.00Q434.00 33.00 386.50 12.00Q339.00 -9.00 275.00 -9.00Q210.00 -9.00 158.50 14.50Q107.00 38.00 77.00 78.50Q47.00 119.00 45.00 169.00Z"/><path transform="translate(20.19,0) scale(0.01340,-0.01340)" d="M307.00 560.00Q407.00 560.00 472.50 512.50Q538.00 465.00 561.00 377.00H438.00Q423.00 418.00 390.00 441.00Q357.00 464.00 307.00 464.00Q237.00 464.00 195.50 414.50Q154.00 365.00 154.00 276.00Q154.00 187.00 195.50 137.00Q237.00 87.00 307.00 87.00Q406.00 87.00 438.00 174.00H561.00Q537.00 90.00 471.00 40.50Q405.00 -9.00 307.00 -9.00Q228.00 -9.00 167.00 26.50Q106.00 62.00 71.50 126.50Q37.00 191.00 37.00 276.00Q37.00 361.00 71.50 425.50Q106.00 490.00 167.00 525.00Q228.00 560.00 307.00 560.00Z"/><path transform="translate(28.23,0) scale(0.01340,-0.01340)" d="M38.00 276.00Q38.00 360.00 75.00 425.00Q112.00 490.00 176.00 525.00Q240.00 560.00 319.00 560.00Q398.00 560.00 462.00 525.00Q526.00 490.00 563.00 425.00Q600.00 360.00 600.00 276.00Q600.00 192.00 562.00 127.00Q524.00 62.00 458.50 26.50Q393.00 -9.00 314.00 -9.00Q236.00 -9.00 173.00 26.50Q110.00 62.00 74.00 126.50Q38.00 191.00 38.00 276.00ZM483.00 276.00Q483.00 336.00 460.00 377.50Q437.00 419.00 399.00 440.00Q361.00 461.00 317.00 461.00Q273.00 461.00 235.50 440.00Q198.00 419.00 176.00 377.50Q154.00 336.00 154.00 276.00Q154.00 187.00 199.50 138.50Q245.00 90.00 314.00 90.00Q358.00 90.00 396.50 111.00Q435.00 132.00 459.00 174.00Q483.00 216.00 483.00 276.00Z"/><path transform="translate(36.78,0) scale(0.01340,-0.01340)" d="M354.00 560.00V442.00H325.00Q258.00 442.00 223.50 408.00Q189.00 374.00 189.00 290.00V0.00H75.00V551.00H189.00V471.00Q214.00 513.00 255.50 536.50Q297.00 560.00 354.00 560.00Z"/><path transform="translate(41.93,0) scale(0.01340,-0.01340)" d="M298.00 560.00Q352.00 560.00 404.50 536.50Q457.00 513.00 488.00 474.00V740.00H603.00V0.00H488.00V83.00Q460.00 43.00 410.50 17.00Q361.00 -9.00 297.00 -9.00Q225.00 -9.00 165.50 27.50Q106.00 64.00 71.50 129.50Q37.00 195.00 37.00 278.00Q37.00 361.00 71.50 425.00Q106.00 489.00 165.50 524.50Q225.00 560.00 298.00 560.00ZM321.00 461.00Q277.00 461.00 239.00 439.50Q201.00 418.00 177.50 376.50Q154.00 335.00 154.00 278.00Q154.00 221.00 177.50 178.00Q201.00 135.00 239.50 112.50Q278.00 90.00 321.00 90.00Q365.00 90.00 403.00 112.00Q441.00 134.00 464.50 176.50Q488.00 219.00 488.00 276.00Q488.00 333.00 464.50 375.00Q441.00 417.00 403.00 439.00Q365.00 461.00 321.00 461.00Z"/></g>
  <rect x="470.62" y="20.00" width="78.60" height="34.0" rx="17.0" fill="#ffffff" fill-opacity=".045"/>
  <rect x="470.62" y="20.00" width="78.60" height="34.0" rx="17.0" fill="none" stroke="#0079bf" stroke-opacity=".30" stroke-width="1.1"/>
  <circle cx="486.62" cy="37.00" r="6.4" fill="#0079bf" opacity=".18"/>
  <circle cx="486.62" cy="37.00" r="4.0" fill="#0079bf"/>
  <g transform="translate(498.62,41.76)" fill="#dfe9f7"><path transform="translate(0.00,0) scale(0.01340,-0.01340)" d="M524.00 695.00V602.00H339.00V0.00H225.00V602.00H39.00V695.00Z"/><path transform="translate(7.56,0) scale(0.01340,-0.01340)" d="M354.00 560.00V442.00H325.00Q258.00 442.00 223.50 408.00Q189.00 374.00 189.00 290.00V0.00H75.00V551.00H189.00V471.00Q214.00 513.00 255.50 536.50Q297.00 560.00 354.00 560.00Z"/><path transform="translate(12.70,0) scale(0.01340,-0.01340)" d="M576.00 233.00H155.00Q160.00 167.00 204.00 127.00Q248.00 87.00 312.00 87.00Q404.00 87.00 442.00 164.00H565.00Q540.00 88.00 474.50 39.50Q409.00 -9.00 312.00 -9.00Q233.00 -9.00 170.50 26.50Q108.00 62.00 72.50 126.50Q37.00 191.00 37.00 276.00Q37.00 361.00 71.50 425.50Q106.00 490.00 168.50 525.00Q231.00 560.00 312.00 560.00Q390.00 560.00 451.00 526.00Q512.00 492.00 546.00 430.50Q580.00 369.00 580.00 289.00Q580.00 258.00 576.00 233.00ZM461.00 325.00Q460.00 388.00 416.00 426.00Q372.00 464.00 307.00 464.00Q248.00 464.00 206.00 426.50Q164.00 389.00 156.00 325.00Z"/><path transform="translate(20.97,0) scale(0.01340,-0.01340)" d="M189.00 740.00V0.00H75.00V740.00Z"/><path transform="translate(24.51,0) scale(0.01340,-0.01340)" d="M189.00 740.00V0.00H75.00V740.00Z"/><path transform="translate(28.05,0) scale(0.01340,-0.01340)" d="M38.00 276.00Q38.00 360.00 75.00 425.00Q112.00 490.00 176.00 525.00Q240.00 560.00 319.00 560.00Q398.00 560.00 462.00 525.00Q526.00 490.00 563.00 425.00Q600.00 360.00 600.00 276.00Q600.00 192.00 562.00 127.00Q524.00 62.00 458.50 26.50Q393.00 -9.00 314.00 -9.00Q236.00 -9.00 173.00 26.50Q110.00 62.00 74.00 126.50Q38.00 191.00 38.00 276.00ZM483.00 276.00Q483.00 336.00 460.00 377.50Q437.00 419.00 399.00 440.00Q361.00 461.00 317.00 461.00Q273.00 461.00 235.50 440.00Q198.00 419.00 176.00 377.50Q154.00 336.00 154.00 276.00Q154.00 187.00 199.50 138.50Q245.00 90.00 314.00 90.00Q358.00 90.00 396.50 111.00Q435.00 132.00 459.00 174.00Q483.00 216.00 483.00 276.00Z"/></g>
  <rect x="79.14" y="64.00" width="79.88" height="34.0" rx="17.0" fill="#ffffff" fill-opacity=".045"/>
  <rect x="79.14" y="64.00" width="79.88" height="34.0" rx="17.0" fill="none" stroke="#f26207" stroke-opacity=".30" stroke-width="1.1"/>
  <circle cx="95.14" cy="81.00" r="6.4" fill="#f26207" opacity=".18"/>
  <circle cx="95.14" cy="81.00" r="4.0" fill="#f26207"/>
  <g transform="translate(107.14,85.76)" fill="#dfe9f7"><path transform="translate(0.00,0) scale(0.01340,-0.01340)" d="M436.00 0.00 276.00 278.00H189.00V0.00H75.00V695.00H315.00Q395.00 695.00 450.50 667.00Q506.00 639.00 533.50 592.00Q561.00 545.00 561.00 487.00Q561.00 419.00 521.50 363.50Q482.00 308.00 400.00 288.00L572.00 0.00ZM189.00 369.00H315.00Q379.00 369.00 411.50 401.00Q444.00 433.00 444.00 487.00Q444.00 541.00 412.00 571.50Q380.00 602.00 315.00 602.00H189.00Z"/><path transform="translate(8.47,0) scale(0.01340,-0.01340)" d="M576.00 233.00H155.00Q160.00 167.00 204.00 127.00Q248.00 87.00 312.00 87.00Q404.00 87.00 442.00 164.00H565.00Q540.00 88.00 474.50 39.50Q409.00 -9.00 312.00 -9.00Q233.00 -9.00 170.50 26.50Q108.00 62.00 72.50 126.50Q37.00 191.00 37.00 276.00Q37.00 361.00 71.50 425.50Q106.00 490.00 168.50 525.00Q231.00 560.00 312.00 560.00Q390.00 560.00 451.00 526.00Q512.00 492.00 546.00 430.50Q580.00 369.00 580.00 289.00Q580.00 258.00 576.00 233.00ZM461.00 325.00Q460.00 388.00 416.00 426.00Q372.00 464.00 307.00 464.00Q248.00 464.00 206.00 426.50Q164.00 389.00 156.00 325.00Z"/><path transform="translate(16.74,0) scale(0.01340,-0.01340)" d="M381.00 560.00Q453.00 560.00 512.50 524.50Q572.00 489.00 606.00 425.00Q640.00 361.00 640.00 278.00Q640.00 195.00 606.00 129.50Q572.00 64.00 512.50 27.50Q453.00 -9.00 381.00 -9.00Q318.00 -9.00 269.00 16.50Q220.00 42.00 189.00 80.00V-262.00H75.00V551.00H189.00V470.00Q218.00 508.00 268.00 534.00Q318.00 560.00 381.00 560.00ZM356.00 461.00Q313.00 461.00 274.50 439.00Q236.00 417.00 212.50 375.00Q189.00 333.00 189.00 276.00Q189.00 219.00 212.50 176.50Q236.00 134.00 274.50 112.00Q313.00 90.00 356.00 90.00Q400.00 90.00 438.50 112.50Q477.00 135.00 500.50 178.00Q524.00 221.00 524.00 278.00Q524.00 335.00 500.50 376.50Q477.00 418.00 438.50 439.50Q400.00 461.00 356.00 461.00Z"/><path transform="translate(25.82,0) scale(0.01340,-0.01340)" d="M189.00 740.00V0.00H75.00V740.00Z"/><path transform="translate(29.36,0) scale(0.01340,-0.01340)" d="M60.00 697.00Q60.00 728.00 81.00 749.00Q102.00 770.00 133.00 770.00Q163.00 770.00 184.00 749.00Q205.00 728.00 205.00 697.00Q205.00 666.00 184.00 645.00Q163.00 624.00 133.00 624.00Q102.00 624.00 81.00 645.00Q60.00 666.00 60.00 697.00ZM189.00 551.00V0.00H75.00V551.00Z"/><path transform="translate(32.90,0) scale(0.01340,-0.01340)" d="M208.00 458.00V153.00Q208.00 122.00 222.50 108.50Q237.00 95.00 272.00 95.00H342.00V0.00H252.00Q175.00 0.00 134.00 36.00Q93.00 72.00 93.00 153.00V458.00H28.00V551.00H93.00V688.00H208.00V551.00H342.00V458.00Z"/></g>
  <rect x="169.02" y="64.00" width="91.42" height="34.0" rx="17.0" fill="#ffffff" fill-opacity=".045"/>
  <rect x="169.02" y="64.00" width="91.42" height="34.0" rx="17.0" fill="none" stroke="#bf0000" stroke-opacity=".30" stroke-width="1.1"/>
  <circle cx="185.02" cy="81.00" r="6.4" fill="#bf0000" opacity=".18"/>
  <circle cx="185.02" cy="81.00" r="4.0" fill="#bf0000"/>
  <g transform="translate(197.02,85.76)" fill="#dfe9f7"><path transform="translate(0.00,0) scale(0.01340,-0.01340)" d="M484.00 695.00V602.00H189.00V397.00H419.00V304.00H189.00V0.00H75.00V695.00Z"/><path transform="translate(6.90,0) scale(0.01340,-0.01340)" d="M60.00 697.00Q60.00 728.00 81.00 749.00Q102.00 770.00 133.00 770.00Q163.00 770.00 184.00 749.00Q205.00 728.00 205.00 697.00Q205.00 666.00 184.00 645.00Q163.00 624.00 133.00 624.00Q102.00 624.00 81.00 645.00Q60.00 666.00 60.00 697.00ZM189.00 551.00V0.00H75.00V551.00Z"/><path transform="translate(10.44,0) scale(0.01340,-0.01340)" d="M189.00 740.00V0.00H75.00V740.00Z"/><path transform="translate(13.98,0) scale(0.01340,-0.01340)" d="M576.00 233.00H155.00Q160.00 167.00 204.00 127.00Q248.00 87.00 312.00 87.00Q404.00 87.00 442.00 164.00H565.00Q540.00 88.00 474.50 39.50Q409.00 -9.00 312.00 -9.00Q233.00 -9.00 170.50 26.50Q108.00 62.00 72.50 126.50Q37.00 191.00 37.00 276.00Q37.00 361.00 71.50 425.50Q106.00 490.00 168.50 525.00Q231.00 560.00 312.00 560.00Q390.00 560.00 451.00 526.00Q512.00 492.00 546.00 430.50Q580.00 369.00 580.00 289.00Q580.00 258.00 576.00 233.00ZM461.00 325.00Q460.00 388.00 416.00 426.00Q372.00 464.00 307.00 464.00Q248.00 464.00 206.00 426.50Q164.00 389.00 156.00 325.00Z"/><path transform="translate(22.24,0) scale(0.01340,-0.01340)" d="M185.00 99.00H508.00V0.00H50.00V89.00L372.00 596.00H50.00V695.00H508.00V606.00Z"/><path transform="translate(29.72,0) scale(0.01340,-0.01340)" d="M60.00 697.00Q60.00 728.00 81.00 749.00Q102.00 770.00 133.00 770.00Q163.00 770.00 184.00 749.00Q205.00 728.00 205.00 697.00Q205.00 666.00 184.00 645.00Q163.00 624.00 133.00 624.00Q102.00 624.00 81.00 645.00Q60.00 666.00 60.00 697.00ZM189.00 551.00V0.00H75.00V551.00Z"/><path transform="translate(33.26,0) scale(0.01340,-0.01340)" d="M189.00 740.00V0.00H75.00V740.00Z"/><path transform="translate(36.80,0) scale(0.01340,-0.01340)" d="M189.00 740.00V0.00H75.00V740.00Z"/><path transform="translate(40.33,0) scale(0.01340,-0.01340)" d="M297.00 560.00Q362.00 560.00 410.50 534.50Q459.00 509.00 488.00 471.00V551.00H603.00V0.00H488.00V82.00Q459.00 43.00 409.00 17.00Q359.00 -9.00 295.00 -9.00Q224.00 -9.00 165.00 27.50Q106.00 64.00 71.50 129.50Q37.00 195.00 37.00 278.00Q37.00 361.00 71.50 425.00Q106.00 489.00 165.50 524.50Q225.00 560.00 297.00 560.00ZM321.00 461.00Q277.00 461.00 239.00 439.50Q201.00 418.00 177.50 376.50Q154.00 335.00 154.00 278.00Q154.00 221.00 177.50 178.00Q201.00 135.00 239.50 112.50Q278.00 90.00 321.00 90.00Q365.00 90.00 403.00 112.00Q441.00 134.00 464.50 176.50Q488.00 219.00 488.00 276.00Q488.00 333.00 464.50 375.00Q441.00 417.00 403.00 439.00Q365.00 461.00 321.00 461.00Z"/></g>
  <rect x="270.44" y="64.00" width="96.94" height="34.0" rx="17.0" fill="#ffffff" fill-opacity=".045"/>
  <rect x="270.44" y="64.00" width="96.94" height="34.0" rx="17.0" fill="none" stroke="#4285f4" stroke-opacity=".30" stroke-width="1.1"/>
  <circle cx="286.44" cy="81.00" r="6.4" fill="#4285f4" opacity=".18"/>
  <circle cx="286.44" cy="81.00" r="4.0" fill="#4285f4"/>
  <g transform="translate(298.44,85.76)" fill="#dfe9f7"><path transform="translate(0.00,0) scale(0.01340,-0.01340)" d="M392.00 704.00Q503.00 704.00 589.50 649.50Q676.00 595.00 715.00 495.00H578.00Q551.00 550.00 503.00 577.00Q455.00 604.00 392.00 604.00Q323.00 604.00 269.00 573.00Q215.00 542.00 184.50 484.00Q154.00 426.00 154.00 349.00Q154.00 272.00 184.50 214.00Q215.00 156.00 269.00 124.50Q323.00 93.00 392.00 93.00Q455.00 93.00 503.00 120.00Q551.00 147.00 578.00 202.00H715.00Q676.00 102.00 589.50 48.00Q503.00 -6.00 392.00 -6.00Q294.00 -6.00 213.00 39.50Q132.00 85.00 84.50 166.00Q37.00 247.00 37.00 349.00Q37.00 451.00 84.50 532.00Q132.00 613.00 213.50 658.50Q295.00 704.00 392.00 704.00Z"/><path transform="translate(10.36,0) scale(0.01340,-0.01340)" d="M579.00 325.00V0.00H466.00V308.00Q466.00 382.00 429.00 421.50Q392.00 461.00 328.00 461.00Q264.00 461.00 226.50 421.50Q189.00 382.00 189.00 308.00V0.00H75.00V740.00H189.00V487.00Q218.00 522.00 262.50 541.00Q307.00 560.00 360.00 560.00Q423.00 560.00 472.50 533.00Q522.00 506.00 550.50 453.00Q579.00 400.00 579.00 325.00Z"/><path transform="translate(19.05,0) scale(0.01340,-0.01340)" d="M354.00 560.00V442.00H325.00Q258.00 442.00 223.50 408.00Q189.00 374.00 189.00 290.00V0.00H75.00V551.00H189.00V471.00Q214.00 513.00 255.50 536.50Q297.00 560.00 354.00 560.00Z"/><path transform="translate(24.20,0) scale(0.01340,-0.01340)" d="M38.00 276.00Q38.00 360.00 75.00 425.00Q112.00 490.00 176.00 525.00Q240.00 560.00 319.00 560.00Q398.00 560.00 462.00 525.00Q526.00 490.00 563.00 425.00Q600.00 360.00 600.00 276.00Q600.00 192.00 562.00 127.00Q524.00 62.00 458.50 26.50Q393.00 -9.00 314.00 -9.00Q236.00 -9.00 173.00 26.50Q110.00 62.00 74.00 126.50Q38.00 191.00 38.00 276.00ZM483.00 276.00Q483.00 336.00 460.00 377.50Q437.00 419.00 399.00 440.00Q361.00 461.00 317.00 461.00Q273.00 461.00 235.50 440.00Q198.00 419.00 176.00 377.50Q154.00 336.00 154.00 276.00Q154.00 187.00 199.50 138.50Q245.00 90.00 314.00 90.00Q358.00 90.00 396.50 111.00Q435.00 132.00 459.00 174.00Q483.00 216.00 483.00 276.00Z"/><path transform="translate(32.75,0) scale(0.01340,-0.01340)" d="M969.00 325.00V0.00H856.00V308.00Q856.00 382.00 819.00 421.50Q782.00 461.00 718.00 461.00Q654.00 461.00 616.50 421.50Q579.00 382.00 579.00 308.00V0.00H466.00V308.00Q466.00 382.00 429.00 421.50Q392.00 461.00 328.00 461.00Q264.00 461.00 226.50 421.50Q189.00 382.00 189.00 308.00V0.00H75.00V551.00H189.00V488.00Q217.00 522.00 260.00 541.00Q303.00 560.00 352.00 560.00Q418.00 560.00 470.00 532.00Q522.00 504.00 550.00 451.00Q575.00 501.00 628.00 530.50Q681.00 560.00 742.00 560.00Q807.00 560.00 858.50 533.00Q910.00 506.00 939.50 453.00Q969.00 400.00 969.00 325.00Z"/><path transform="translate(46.67,0) scale(0.01340,-0.01340)" d="M576.00 233.00H155.00Q160.00 167.00 204.00 127.00Q248.00 87.00 312.00 87.00Q404.00 87.00 442.00 164.00H565.00Q540.00 88.00 474.50 39.50Q409.00 -9.00 312.00 -9.00Q233.00 -9.00 170.50 26.50Q108.00 62.00 72.50 126.50Q37.00 191.00 37.00 276.00Q37.00 361.00 71.50 425.50Q106.00 490.00 168.50 525.00Q231.00 560.00 312.00 560.00Q390.00 560.00 451.00 526.00Q512.00 492.00 546.00 430.50Q580.00 369.00 580.00 289.00Q580.00 258.00 576.00 233.00ZM461.00 325.00Q460.00 388.00 416.00 426.00Q372.00 464.00 307.00 464.00Q248.00 464.00 206.00 426.50Q164.00 389.00 156.00 325.00Z"/></g>
  <rect x="377.38" y="64.00" width="112.70" height="34.0" rx="17.0" fill="#ffffff" fill-opacity=".045"/>
  <rect x="377.38" y="64.00" width="112.70" height="34.0" rx="17.0" fill="none" stroke="#e4405f" stroke-opacity=".30" stroke-width="1.1"/>
  <circle cx="393.38" cy="81.00" r="6.4" fill="#e4405f" opacity=".18"/>
  <circle cx="393.38" cy="81.00" r="4.0" fill="#e4405f"/>
  <g transform="translate(405.38,85.76)" fill="#dfe9f7"><path transform="translate(0.00,0) scale(0.01340,-0.01340)" d="M189.00 695.00V0.00H75.00V695.00Z"/><path transform="translate(3.54,0) scale(0.01340,-0.01340)" d="M579.00 325.00V0.00H466.00V308.00Q466.00 382.00 429.00 421.50Q392.00 461.00 328.00 461.00Q264.00 461.00 226.50 421.50Q189.00 382.00 189.00 308.00V0.00H75.00V551.00H189.00V488.00Q217.00 522.00 260.50 541.00Q304.00 560.00 353.00 560.00Q418.00 560.00 469.50 533.00Q521.00 506.00 550.00 453.00Q579.00 400.00 579.00 325.00Z"/><path transform="translate(12.23,0) scale(0.01340,-0.01340)" d="M45.00 169.00H163.00Q166.00 134.00 196.50 110.50Q227.00 87.00 273.00 87.00Q321.00 87.00 347.50 105.50Q374.00 124.00 374.00 153.00Q374.00 184.00 344.50 199.00Q315.00 214.00 251.00 232.00Q189.00 249.00 150.00 265.00Q111.00 281.00 82.50 314.00Q54.00 347.00 54.00 401.00Q54.00 445.00 80.00 481.50Q106.00 518.00 154.50 539.00Q203.00 560.00 266.00 560.00Q360.00 560.00 417.50 512.50Q475.00 465.00 479.00 383.00H365.00Q362.00 420.00 335.00 442.00Q308.00 464.00 262.00 464.00Q217.00 464.00 193.00 447.00Q169.00 430.00 169.00 402.00Q169.00 380.00 185.00 365.00Q201.00 350.00 224.00 341.50Q247.00 333.00 292.00 320.00Q352.00 304.00 390.50 287.50Q429.00 271.00 457.00 239.00Q485.00 207.00 486.00 154.00Q486.00 107.00 460.00 70.00Q434.00 33.00 386.50 12.00Q339.00 -9.00 275.00 -9.00Q210.00 -9.00 158.50 14.50Q107.00 38.00 77.00 78.50Q47.00 119.00 45.00 169.00Z"/><path transform="translate(19.39,0) scale(0.01340,-0.01340)" d="M208.00 458.00V153.00Q208.00 122.00 222.50 108.50Q237.00 95.00 272.00 95.00H342.00V0.00H252.00Q175.00 0.00 134.00 36.00Q93.00 72.00 93.00 153.00V458.00H28.00V551.00H93.00V688.00H208.00V551.00H342.00V458.00Z"/><path transform="translate(24.37,0) scale(0.01340,-0.01340)" d="M297.00 560.00Q362.00 560.00 410.50 534.50Q459.00 509.00 488.00 471.00V551.00H603.00V0.00H488.00V82.00Q459.00 43.00 409.00 17.00Q359.00 -9.00 295.00 -9.00Q224.00 -9.00 165.00 27.50Q106.00 64.00 71.50 129.50Q37.00 195.00 37.00 278.00Q37.00 361.00 71.50 425.00Q106.00 489.00 165.50 524.50Q225.00 560.00 297.00 560.00ZM321.00 461.00Q277.00 461.00 239.00 439.50Q201.00 418.00 177.50 376.50Q154.00 335.00 154.00 278.00Q154.00 221.00 177.50 178.00Q201.00 135.00 239.50 112.50Q278.00 90.00 321.00 90.00Q365.00 90.00 403.00 112.00Q441.00 134.00 464.50 176.50Q488.00 219.00 488.00 276.00Q488.00 333.00 464.50 375.00Q441.00 417.00 403.00 439.00Q365.00 461.00 321.00 461.00Z"/><path transform="translate(33.46,0) scale(0.01340,-0.01340)" d="M488.00 471.00V551.00H603.00V-9.00Q603.00 -85.00 571.00 -144.50Q539.00 -204.00 478.50 -238.00Q418.00 -272.00 334.00 -272.00Q222.00 -272.00 148.00 -219.50Q74.00 -167.00 64.00 -77.00H177.00Q190.00 -120.00 232.50 -146.50Q275.00 -173.00 334.00 -173.00Q403.00 -173.00 445.50 -131.00Q488.00 -89.00 488.00 -9.00V83.00Q459.00 44.00 409.50 17.50Q360.00 -9.00 297.00 -9.00Q225.00 -9.00 165.50 27.50Q106.00 64.00 71.50 129.50Q37.00 195.00 37.00 278.00Q37.00 361.00 71.50 425.00Q106.00 489.00 165.50 524.50Q225.00 560.00 297.00 560.00Q361.00 560.00 410.50 534.50Q460.00 509.00 488.00 471.00ZM321.00 461.00Q277.00 461.00 239.00 439.50Q201.00 418.00 177.50 376.50Q154.00 335.00 154.00 278.00Q154.00 221.00 177.50 178.00Q201.00 135.00 239.50 112.50Q278.00 90.00 321.00 90.00Q365.00 90.00 403.00 112.00Q441.00 134.00 464.50 176.50Q488.00 219.00 488.00 276.00Q488.00 333.00 464.50 375.00Q441.00 417.00 403.00 439.00Q365.00 461.00 321.00 461.00Z"/><path transform="translate(42.55,0) scale(0.01340,-0.01340)" d="M354.00 560.00V442.00H325.00Q258.00 442.00 223.50 408.00Q189.00 374.00 189.00 290.00V0.00H75.00V551.00H189.00V471.00Q214.00 513.00 255.50 536.50Q297.00 560.00 354.00 560.00Z"/><path transform="translate(47.69,0) scale(0.01340,-0.01340)" d="M297.00 560.00Q362.00 560.00 410.50 534.50Q459.00 509.00 488.00 471.00V551.00H603.00V0.00H488.00V82.00Q459.00 43.00 409.00 17.00Q359.00 -9.00 295.00 -9.00Q224.00 -9.00 165.00 27.50Q106.00 64.00 71.50 129.50Q37.00 195.00 37.00 278.00Q37.00 361.00 71.50 425.00Q106.00 489.00 165.50 524.50Q225.00 560.00 297.00 560.00ZM321.00 461.00Q277.00 461.00 239.00 439.50Q201.00 418.00 177.50 376.50Q154.00 335.00 154.00 278.00Q154.00 221.00 177.50 178.00Q201.00 135.00 239.50 112.50Q278.00 90.00 321.00 90.00Q365.00 90.00 403.00 112.00Q441.00 134.00 464.50 176.50Q488.00 219.00 488.00 276.00Q488.00 333.00 464.50 375.00Q441.00 417.00 403.00 439.00Q365.00 461.00 321.00 461.00Z"/><path transform="translate(56.78,0) scale(0.01340,-0.01340)" d="M969.00 325.00V0.00H856.00V308.00Q856.00 382.00 819.00 421.50Q782.00 461.00 718.00 461.00Q654.00 461.00 616.50 421.50Q579.00 382.00 579.00 308.00V0.00H466.00V308.00Q466.00 382.00 429.00 421.50Q392.00 461.00 328.00 461.00Q264.00 461.00 226.50 421.50Q189.00 382.00 189.00 308.00V0.00H75.00V551.00H189.00V488.00Q217.00 522.00 260.00 541.00Q303.00 560.00 352.00 560.00Q418.00 560.00 470.00 532.00Q522.00 504.00 550.00 451.00Q575.00 501.00 628.00 530.50Q681.00 560.00 742.00 560.00Q807.00 560.00 858.50 533.00Q910.00 506.00 939.50 453.00Q969.00 400.00 969.00 325.00Z"/></g>
</svg>
