<svg xmlns="http://www.w3.org/2000/svg" viewBox="0 0 48 58" width="48" height="58" role="img" aria-label="stack">
  <defs>
    <linearGradient id="bg" x1="0" y1="0" x2="1" y2="1">
      <stop offset="0" stop-color="#18243a"/><stop offset="1" stop-color="#0a1220"/>
    </linearGradient>
    <linearGradient id="ink" gradientUnits="userSpaceOnUse" x1="0" y1="0" x2="24" y2="24">
      <stop offset="0" stop-color="#7bead2"/><stop offset="1" stop-color="#7fb2ff"/>
    </linearGradient>
    <linearGradient id="edge" x1="0" y1="0" x2="0" y2="1">
      <stop offset="0" stop-color="#ffffff" stop-opacity=".40"/>
      <stop offset=".55" stop-color="#ffffff" stop-opacity=".08"/>
      <stop offset="1" stop-color="#ffffff" stop-opacity=".03"/>
    </linearGradient>
    <radialGradient id="sheen" cx=".28" cy=".18" r=".85">
      <stop offset="0" stop-color="#63e0c7" stop-opacity=".22"/>
      <stop offset="1" stop-color="#71a8ff" stop-opacity="0"/>
    </radialGradient>
  </defs>
  <rect x="1.25" y="1.25" width="45.5" height="45.5" rx="14" fill="url(#bg)"/>
  <rect x="1.25" y="1.25" width="45.5" height="45.5" rx="14" fill="url(#sheen)"/>
  <rect x="1.25" y="1.25" width="45.5" height="45.5" rx="14" fill="none" stroke="url(#edge)" stroke-width="1.3"/>
  <g transform="translate(12.0,12.0) scale(1.0000)" fill="none" stroke="#63e0c7" stroke-width="4.5" stroke-linecap="round" stroke-linejoin="round" opacity=".14"><path d="M12 3.2l8.6 4.6L12 12.4 3.4 7.8z"/><path d="M3.4 12l8.6 4.6L20.6 12"/><path d="M3.4 16.2l8.6 4.6 8.6-4.6"/></g><g transform="translate(12.0,12.0) scale(1.0000)" fill="none" stroke="url(#ink)" stroke-width="2.1" stroke-linecap="round" stroke-linejoin="round"><path d="M12 3.2l8.6 4.6L12 12.4 3.4 7.8z"/><path d="M3.4 12l8.6 4.6L20.6 12"/><path d="M3.4 16.2l8.6 4.6 8.6-4.6"/></g>
</svg>
